HIERARCHY
ROOT pelvis
{
  OFFSET 0 100 0
  CHANNELS 6 Xposition Yposition Zposition Zrotation Xrotation Yrotation
  JOINT pelvis_right_femur
  {
    OFFSET -10.78128 -3.44521 -0.5502486
    CHANNELS 3 Zrotation Xrotation Yrotation
    JOINT right_femur_tibia
    {
      OFFSET -0.8047443 -44.0398 -0.1307829
      CHANNELS 3 Zrotation Xrotation Yrotation
      JOINT right_tibia_foot
      {
        OFFSET 3.006224 -47.83518 -5
        CHANNELS 3 Zrotation Xrotation Yrotation
        End Site
        {
          OFFSET 0 -5 15
        }
      }
    }
  }
  JOINT pelvis_left_femur
  {
    OFFSET 10.78128 -3.44521 -0.5502486
    CHANNELS 3 Zrotation Xrotation Yrotation
    JOINT left_femur_tibia
    {
      OFFSET 0.8047443 -44.0398 -0.1307829
      CHANNELS 3 Zrotation Xrotation Yrotation
      JOINT left_tibia_foot
      {
        OFFSET -4.370144 -48.10324 -4.275266
        CHANNELS 3 Zrotation Xrotation Yrotation
        End Site
        {
          OFFSET 0 -5 15
        }
      }
    }
  }
  JOINT pelvis_spine1
  {
    OFFSET 0 6.468898 -3.129235
    CHANNELS 3 Zrotation Xrotation Yrotation
    JOINT spine1
    {
      OFFSET 0 23.15396 4.99043
      CHANNELS 3 Zrotation Xrotation Yrotation
      JOINT spine2
      {
        OFFSET 0 20.79997 -5.064912
        CHANNELS 3 Zrotation Xrotation Yrotation
        JOINT neck
        {
          OFFSET 0 14.38658 9.616178
          CHANNELS 3 Zrotation Xrotation Yrotation
          End Site
          {
            OFFSET 0 20 0
          }
        }
      }
      JOINT right_manubrium
      {
        OFFSET -5.722621 16.35077 3.967754
        CHANNELS 3 Zrotation Xrotation Yrotation
        JOINT right_clavicle
        {
          OFFSET -13.16364 1.694482 -4.693211
          CHANNELS 3 Zrotation Xrotation Yrotation
          JOINT right_humerus
          {
            OFFSET -28.5034 -0.3100689 -2.792744
            CHANNELS 3 Zrotation Xrotation Yrotation
            JOINT right_radius
            {
              OFFSET -25.15693 0.02248979 -1.271978
              CHANNELS 3 Zrotation Xrotation Yrotation
              End Site
              {
                OFFSET -15 0 0
              }
            }
          }
        }
      }
      JOINT left_manubrium
      {
        OFFSET 5.722621 16.35077 3.967754
        CHANNELS 3 Zrotation Xrotation Yrotation
        JOINT left_clavicle
        {
          OFFSET 13.16364 1.694482 -4.693211
          CHANNELS 3 Zrotation Xrotation Yrotation
          JOINT left_humerus
          {
            OFFSET 29.39168 -1.063119 -2.237045
            CHANNELS 3 Zrotation Xrotation Yrotation
            JOINT left_radius
            {
              OFFSET 24.59957 -0.9528479 0.9047498
              CHANNELS 3 Zrotation Xrotation Yrotation
              End Site
              {
                OFFSET 15 -0 -0
              }
            }
          }
        }
      }
    }
  }
}
MOTION
Frames: 15
Frame Time: 0.0416666666667
-1212.766 101.8967 2198.669 -5.101585 -1.691901 -70.4064 6.11257 -3.777851 0.9614101 -0 11.67122 -0 -12.49406 -5.997496 -1.237335 -2.382759 -6.831201 -7.119337 -0 57.93497 -0 -0.2850936 -4.115305 13.02589 0.4766633 -0.8219368 6.896828 1.819129 13.64593 -8.219906 -0.2145503 22.20533 4.339071 3.55536 -20.6137 3.283741 -3.742223 -23.87311 12.20196 94.20975 22.76806 -20.93089 -0 0 15.19796 -18.62977 5.369579 1.43829 5.00009 -26.74589 -8.51305 -90.29015 9.380445 23.42131 0 0 -13.73849 15.79571 11.93177 -10.72344
-1217.707 102.5881 2200.512 -5.325468 -2.357637 -70.94737 5.471767 0.8589804 1.265254 -0 10.15022 -0 -11.8847 -7.53725 -0.9391988 -1.336434 -13.13143 -5.958117 -0 54.5402 -0 0.180724 -4.167492 13.81225 0.5929659 -0.8822082 7.26288 1.684875 14.00863 -8.073662 -0.1919421 21.873 3.939016 3.2876 -20.20972 3.022615 -3.415489 -24.99642 12.27066 93.3792 22.57339 -19.51776 -0 0 17.29587 -18.58092 6.260414 2.347364 4.421463 -26.26598 -8.609365 -91.08988 9.35785 26.02991 0 0 -11.72004 14.95218 12.10536 -9.097596
-1222.566 102.7173 2202.438 -5.538562 -2.419161 -71.34048 5.489203 4.533046 1.680585 -0 9.654511 -0 -11.37523 -8.889044 -0.7209486 0.5066982 -18.17566 -4.302093 -0 46.63613 -0 0.7956948 -3.965726 14.42174 0.7139811 -0.913663 7.633035 1.551919 14.33494 -7.91785 -0.1523824 21.55985 3.494874 2.948904 -19.8406 2.79734 -3.15591 -26.16292 12.33711 92.57446 22.41978 -18.01109 -0 0 19.45374 -18.53837 7.139154 3.263666 3.825296 -25.68393 -8.622671 -91.88916 9.311505 28.65865 0 0 -9.605336 14.13841 12.27629 -7.564993
-1227.461 102.3165 2204.532 -5.81735 -1.981939 -71.67521 5.941991 7.658035 1.946286 -0 9.864421 -0 -10.68054 -10.30553 -0.6659197 2.716066 -21.47056 -2.401638 -0 36.34308 -0 1.164354 -3.269266 14.85443 0.8293368 -0.9365046 7.983052 1.406739 14.62319 -7.751141 -0.1055652 21.25961 3.062491 2.612002 -19.47047 2.599555 -2.914227 -27.27432 12.39971 91.79117 22.31053 -16.50749 -0 0 21.5564 -18.52521 8.00879 4.173719 3.269201 -25.08433 -8.59168 -92.62716 9.224232 31.11694 0 0 -7.626231 13.38322 12.43318 -6.152473
-1232.474 101.5178 2206.814 -6.105898 -1.391678 -72.05482 6.304285 10.74739 1.839089 -0 10.0978 -0 -9.703033 -12.05413 -0.7510349 4.431108 -23.14809 -1.075864 -0 26.37836 -0 0.6193552 -2.620917 15.31943 0.9311499 -0.972939 8.295511 1.246752 14.87305 -7.575446 -0.06284245 20.96963 2.694271 2.343608 -19.07746 2.419433 -2.658004 -28.24287 12.45504 91.03343 22.23135 -15.10925 -0 0 23.47932 -18.55507 8.861216 5.05265 2.797774 -24.55178 -8.559494 -93.26964 9.095145 33.26063 0 0 -5.973478 12.69261 12.56262 -4.854414
-1237.636 100.4694 2209.231 -6.393248 -0.9542733 -72.54138 6.258337 13.92283 1.272983 -0 10.1302 -0 -8.86555 -14.03647 -0.8688402 5.101054 -23.63019 -0.9320904 -0 18.49524 -0 -0.8341845 -2.539967 16.02032 1.01479 -1.03408 8.562568 1.080731 15.08325 -7.397081 -0.0328211 20.69517 2.419971 2.178782 -18.66532 2.251002 -2.382687 -29.01956 12.49923 90.31695 22.16617 -13.89187 -0 0 25.12958 -18.62559 9.669151 5.865226 2.431069 -24.13812 -8.554429 -93.81112 8.936063 35.02458 0 0 -4.727587 12.0671 12.65308 -3.666876
-1242.942 99.30701 2211.712 -6.711793 -0.7947319 -73.14564 5.787278 17.02611 0.3509877 -0 10.22835 -0 -8.565211 -15.82877 -0.9283811 4.729288 -23.27864 -1.971798 -0 13.08772 -0 -2.682823 -3.115487 16.95398 1.076707 -1.118856 8.782313 0.9207921 15.25297 -7.223499 -0.02039083 20.44616 2.248199 2.124909 -18.25252 2.091866 -2.097046 -29.59159 12.53 89.65833 22.10795 -12.89362 -0 0 26.46042 -18.72577 10.39626 6.578717 2.170594 -23.86019 -8.588858 -94.26209 8.762033 36.40431 0 0 -3.871409 11.51269 12.69777 -2.60091
-1248.383 98.15389 2214.21 -7.092465 -0.9138004 -73.83694 4.987675 19.87865 -0.7404616 -0 10.81599 -0 -8.912747 -16.98218 -0.8920277 3.587777 -22.26528 -3.873643 -0 9.80622 -0 -4.467036 -4.175443 17.96269 1.113865 -1.217173 8.952471 0.7789528 15.38114 -7.063738 -0.02619846 20.23598 2.173492 2.169609 -17.8674 1.945328 -1.817467 -29.96524 12.54728 89.0798 22.05852 -12.13266 -0 0 27.45006 -18.84167 11.0015 7.163654 2.009298 -23.71137 -8.661321 -94.62975 8.589879 37.41238 0 0 -3.343214 11.04689 12.69761 -1.691383
-1253.938 97.12458 2216.691 -7.568895 -1.270551 -74.55863 3.955716 22.36302 -1.841345 -0 12.26253 -0 -9.854953 -17.20003 -0.75604 1.970206 -20.61136 -6.305412 -0 8.153311 -0 -5.997245 -5.525453 18.88756 1.124974 -1.314157 9.067624 0.6667282 15.46646 -6.930187 -0.04710679 20.07953 2.182219 2.287773 -17.54503 1.820578 -1.566498 -30.15228 12.55283 88.61542 22.02359 -11.62689 -0 0 28.08096 -18.95717 11.44276 7.589542 1.938208 -23.6751 -8.760503 -94.90685 8.439192 38.04988 0 0 -3.08381 10.69774 12.66196 -0.9945864
-1259.567 96.3245 2219.13 -8.181449 -1.815682 -75.24123 2.772322 24.38536 -2.841317 -0 14.83268 -0 -11.30497 -16.35943 -0.5269611 0.1270878 -18.26929 -9.020681 -0 7.716038 -0 -7.295331 -7.041154 19.63119 1.112168 -1.393868 9.120664 0.5951081 15.50812 -6.838911 -0.07738435 19.99016 2.255711 2.446923 -17.32242 1.730311 -1.371143 -30.16529 12.54957 88.31023 22.00777 -11.4016 -0 0 28.33448 -19.05282 11.68283 7.823386 1.948488 -23.73389 -8.869416 -95.07166 8.331353 38.30248 0 0 -3.059962 10.4975 12.60638 -0.5759282
-1265.201 95.84421 2221.493 -8.964364 -2.4946 -75.81259 1.515915 25.83287 -3.658274 -0 18.68173 -0 -13.17162 -14.49195 -0.2119162 -1.722009 -15.19374 -11.84189 -0 8.172617 -0 -8.490072 -8.65911 20.14231 1.081584 -1.442007 9.105621 0.5741817 15.50588 -6.807713 -0.1099362 19.97727 2.372226 2.61125 -17.23382 1.688111 -1.261233 -30.01774 12.54069 88.21425 22.01156 -11.4859 -0 0 28.19465 -19.10682 11.69487 7.832869 2.031116 -23.87246 -8.968253 -95.09441 8.286665 38.14922 0 0 -3.267617 10.47518 12.54836 -0.4955065
-1270.739 95.74636 2223.735 -9.924902 -3.242772 -76.20829 0.2765286 26.55803 -4.223673 -0 23.81107 -0 -15.33551 -11.79118 0.1739749 -3.375342 -11.40374 -14.62774 -0 9.238542 -0 -9.739976 -10.34116 20.38894 1.042008 -1.447671 9.019286 0.6123774 15.45853 -6.852094 -0.1369575 20.04641 2.509204 2.744587 -17.3079 1.707681 -1.268932 -29.72469 12.52814 88.37462 22.03065 -11.90205 -0 0 27.65222 -19.10003 11.46473 7.593866 2.176189 -24.07539 -9.035152 -94.94608 8.321372 37.57269 0 0 -3.721557 10.65003 12.50315 -0.7970017
-1276.051 96.04636 2225.802 -11.01911 -3.982014 -76.38453 -0.835157 26.39296 -4.492144 -0 29.96203 -0 -17.61134 -8.647791 0.5841844 -4.658496 -7.042614 -17.25383 -0 10.61667 -0 -11.1689 -12.04481 20.34973 1.001694 -1.404197 8.861206 0.7150774 15.36137 -6.979658 -0.1501557 20.20128 2.646183 2.813334 -17.56621 1.803405 -1.427478 -29.30269 12.51136 88.8258 22.05803 -12.64999 -0 0 26.70822 -19.02445 10.99056 7.100888 2.372579 -24.32106 -9.045764 -94.60793 8.445075 36.56827 0 0 -4.433542 11.02664 12.48124 -1.500654
-1281 96.69372 2227.646 -12.1308 -4.622919 -76.33187 -1.6958 25.19871 -4.466897 -0 36.50066 -0 -19.72041 -5.65983 0.9133899 -5.459068 -2.416565 -19.6079 -0 11.97637 -0 -12.80023 -13.712 20.02812 0.9644144 -1.309307 8.63338 0.8824985 15.20518 -7.184585 -0.1415367 20.44562 2.768169 2.791337 -18.01972 1.989351 -1.764995 -28.76993 12.48715 89.57628 22.08878 -13.6914 -0 0 25.38067 -18.89091 10.28256 6.376695 2.608055 -24.57599 -8.974625 -94.08194 8.657766 35.15515 0 0 -5.382751 11.59195 12.4872 -2.598531
-1285.475 97.56848 2229.234 -13.07335 -5.07908 -76.08234 -2.205679 22.93684 -4.210738 -0 42.44142 -0 -21.31205 -3.526958 1.00192 -5.771065 2.035848 -21.59376 -0 12.98824 -0 -14.50184 -15.28035 19.48141 0.9266596 -1.164995 8.341196 1.10759 14.97918 -7.445401 -0.1058552 20.78186 2.868966 2.66804 -18.66203 2.273886 -2.291332 -28.14687 12.45158 90.59473 22.12579 -14.94327 -0 0 23.71524 -18.73037 9.364257 5.474592 2.870033 -24.79678 -8.801872 -93.3991 8.946563 33.38851 0 0 -6.492655 12.31544 12.51825 -4.050935
